# xmcd CD database file
#
# Track frame offsets:
#	150
#	13555
#	26542
#	40350
#	52339
#	61217
#	73575
#	84410
#	97282
#	112535
#	123367
#	135015
#	146677
#	164380
#	175880
#	188160
#
# Disc length: 2673 seconds
#
# Revision: 0
# Processed by: cddbd v1.5PL3 Copyright (c) Steve Scherf et al.
# Submitted via: CDex 1.50beta10
#
DISCID=d50a6f10
DTITLE=Glen Gray and the Casa Loma Orchestra - Essence of Swing
DYEAR=1900
DGENRE=Jazz
TTITLE0=Maniac's Ball
TTITLE1=Linger Awhile
TTITLE2=The Man I Love
TTITLE3=Can't We Be Friends
TTITLE4=White Star Stomp
TTITLE5=Loveless Love
TTITLE6=Stompin' Around
TTITLE7=Black Jazz
TTITLE8=Limehouse Blues
TTITLE9=Sunny Disposish
TTITLE10=Wolverine Blues
TTITLE11=Copenhagen
TTITLE12=Ol' Man River
TTITLE13=Chinatown My Chinatown
TTITLE14=Should I
TTITLE15=Walkin' the Dog
EXTD=
EXTT0=
EXTT1=
EXTT2=
EXTT3=
EXTT4=
EXTT5=
EXTT6=
EXTT7=
EXTT8=
EXTT9=
EXTT10=
EXTT11=
EXTT12=
EXTT13=
EXTT14=
EXTT15=
PLAYORDER=
